<?xml version="1.0" encoding="utf-8"?>
<!-- Generator: Adobe Illustrator 18.1.1, SVG Export Plug-In . SVG Version: 6.00 Build 0)  -->
<svg version="1.1" id="Layer_1" xmlns="http://www.w3.org/2000/svg" xmlns:xlink="http://www.w3.org/1999/xlink" x="0px" y="0px"
	 viewBox="-241 242 17 17" enable-background="new -241 242 17 17" xml:space="preserve">
<path fill="#FFFFFF" d="M-229.1,252.5c0,0.6-0.3,1.5-1,1.5c-0.7,0-1-0.9-1-1.5c0-0.6,0.3-1.5,1-1.5
	C-229.4,251-229.1,251.9-229.1,252.5z M-235,251c-0.7,0-1,0.9-1,1.5c0,0.6,0.3,1.5,1,1.5s1-0.9,1-1.5C-234,251.9-234.3,251-235,251z
	 M-226.1,251.1c0,0.9-0.1,1.8-0.5,2.5c-1,2-3.8,2.2-5.8,2.2c-2,0-5-0.2-6-2.2c-0.4-0.8-0.5-1.7-0.5-2.5c0-1.1,0.3-2.2,1-3
	c-0.1-0.4-0.2-0.9-0.2-1.3c0-0.6,0.1-1.1,0.4-1.7c1.2,0,2,0.5,2.9,1.2c0.8-0.2,1.6-0.3,2.4-0.3c0.7,0,1.4,0.1,2.1,0.2
	c0.9-0.7,1.7-1.2,2.9-1.2c0.3,0.5,0.4,1.1,0.4,1.7c0,0.4-0.1,0.9-0.2,1.3C-226.4,248.9-226.1,250-226.1,251.1z M-227.8,252.5
	c0-1.2-0.7-2.2-2-2.2c-0.5,0-1,0.1-1.5,0.2c-0.4,0.1-0.8,0.1-1.2,0.1s-0.8,0-1.2-0.1c-0.5-0.1-1-0.2-1.5-0.2c-1.2,0-2,1-2,2.2
	c0,2.3,2.1,2.7,4,2.7h1.3C-230,255.2-227.8,254.8-227.8,252.5z"/>
</svg>
