<?xml version="1.0" encoding="utf-8"?>
<!-- Generator: Adobe Illustrator 18.1.1, SVG Export Plug-In . SVG Version: 6.00 Build 0)  -->
<svg version="1.1" id="Layer_1" xmlns="http://www.w3.org/2000/svg" xmlns:xlink="http://www.w3.org/1999/xlink" x="0px" y="0px"
	 viewBox="0 0 500 500" enable-background="new 0 0 500 500" xml:space="preserve">
<g>
	<path fill="none" d="M250,0c138.1,0,250,111.9,250,250S388.1,500,250,500S0,388.1,0,250S111.9,0,250,0z"/>
	<path fill="#FFFFFF" stroke="#3F729B" stroke-miterlimit="10" d="M349.8,87.3H150.2c-34.7,0-62.9,28.2-62.9,62.9v199.6
		c0,34.7,28.2,62.9,62.9,62.9h199.6c34.7,0,62.9-28.2,62.9-62.9V150.2C412.7,115.5,384.5,87.3,349.8,87.3z M369.6,123.7h7.2v54
		l-54.3,0.2l-0.2-54C322.2,123.8,369.6,123.7,369.6,123.7z M250,195.5c45.1,0,54.5,42.3,54.5,54.5c0,29.9-24.4,54.3-54.5,54.3
		s-54.5-24.4-54.5-54.3C195.5,238,204.9,195.5,250,195.5z M377,345.9c0,17.2-14,31.2-31.2,31.2H153.6c-17.2,0-31.2-14-31.2-31.2
		V213.8h45.2c-4.2,10.3-6.6,24.4-6.6,36.2c0,49,39.9,88.9,88.9,88.9s88.9-39.9,88.9-88.9c0-11.8-2.3-25.9-6.6-36.2h44.6L377,345.9
		L377,345.9z"/>
</g>
</svg>
